<svg xmlns="http://www.w3.org/2000/svg" viewBox="0 0 640 420" role="img" aria-label="Children making sandwiches in a kitchen">
  <rect width="640" height="420" rx="28" fill="#fffaf1"/>
  <rect x="28" y="34" width="584" height="250" rx="20" fill="#d9ecf2"/>
  <rect x="58" y="64" width="130" height="90" rx="12" fill="#87a8d8"/>
  <path d="M70 142l42-42 28 28 26-26 14 40z" fill="#fffaf1"/>
  <rect x="225" y="62" width="350" height="36" rx="12" fill="#f0bd5e"/>
  <rect x="225" y="116" width="350" height="36" rx="12" fill="#f0bd5e"/>
  <rect x="0" y="262" width="640" height="158" fill="#e8d3ad"/>
  <rect x="105" y="234" width="430" height="124" rx="20" fill="#ffffff"/>
  <ellipse cx="230" cy="294" rx="72" ry="18" fill="#eadbc0"/>
  <rect x="172" y="270" width="116" height="26" rx="8" fill="#f6cf7a"/>
  <rect x="184" y="254" width="94" height="24" rx="7" fill="#5aa897"/>
  <circle cx="175" cy="204" r="38" fill="#ffd7ba"/>
  <path d="M132 205c2-34 22-51 52-47 25 3 40 22 40 48-24-7-43-20-55-39-8 18-20 30-37 38z" fill="#6f4e37"/>
  <circle cx="162" cy="208" r="5" fill="#24302f"/>
  <circle cx="190" cy="208" r="5" fill="#24302f"/>
  <path d="M165 230c9 8 19 8 28 0" fill="none" stroke="#24302f" stroke-width="5" stroke-linecap="round"/>
  <path d="M112 330c9-62 33-95 64-95s55 33 64 95" fill="#e98a91"/>
  <circle cx="423" cy="198" r="40" fill="#ffd7ba"/>
  <path d="M383 195c5-31 24-47 55-43 23 3 37 20 38 43-31 2-58-9-81-32-3 15-7 25-12 32z" fill="#2f776b"/>
  <circle cx="410" cy="203" r="5" fill="#24302f"/>
  <circle cx="440" cy="203" r="5" fill="#24302f"/>
  <path d="M413 224c8 8 18 8 27 0" fill="none" stroke="#24302f" stroke-width="5" stroke-linecap="round"/>
  <path d="M357 330c11-63 35-96 66-96s55 33 66 96" fill="#87a8d8"/>
  <rect x="320" y="286" width="66" height="34" rx="8" fill="#fffaf1"/>
  <circle cx="354" cy="302" r="18" fill="#f0bd5e"/>
  <path d="M287 300c40 26 75 28 105 6" fill="none" stroke="#5aa897" stroke-width="13" stroke-linecap="round"/>
</svg>
